HIERARCHY
ROOT mixamorig:Hips
{
	OFFSET -0.000008 104.274872 1.554316
	CHANNELS 6 Xposition Yposition Zposition Xrotation Yrotation Zrotation
	JOINT mixamorig:Spine
	{
		OFFSET -0.000005 10.181595 0.131519
		CHANNELS 6 Xposition Yposition Zposition Xrotation Yrotation Zrotation
		JOINT mixamorig:Spine1
		{
			OFFSET -0.000000 9.893959 -1.470707
			CHANNELS 6 Xposition Yposition Zposition Xrotation Yrotation Zrotation
			JOINT mixamorig:Spine2
			{
				OFFSET -0.000000 9.220757 -1.370641
				CHANNELS 6 Xposition Yposition Zposition Xrotation Yrotation Zrotation
				JOINT mixamorig:Neck
				{
					OFFSET 0.000001 16.740417 -2.049036
					CHANNELS 6 Xposition Yposition Zposition Xrotation Yrotation Zrotation
					JOINT mixamorig:Head
					{
						OFFSET 0.000000 9.617874 1.685006
						CHANNELS 6 Xposition Yposition Zposition Xrotation Yrotation Zrotation
						JOINT mixamorig:HeadTop_End
						{
							OFFSET 0.000002 22.037354 7.501101
							CHANNELS 6 Xposition Yposition Zposition Xrotation Yrotation Zrotation
							End Site
							{
								OFFSET 0.000168 2310.654297 -282.823242
							}
						}
					}
				}
				JOINT mixamorig:RightShoulder
				{
					OFFSET -4.569970 11.014908 -2.160885
					CHANNELS 6 Xposition Yposition Zposition Xrotation Yrotation Zrotation
					JOINT mixamorig:RightArm
					{
						OFFSET -10.592851 -0.524811 -2.232101
						CHANNELS 6 Xposition Yposition Zposition Xrotation Yrotation Zrotation
						JOINT mixamorig:RightForeArm
						{
							OFFSET -27.841511 0.000031 -0.000004
							CHANNELS 6 Xposition Yposition Zposition Xrotation Yrotation Zrotation
							JOINT mixamorig:RightHand
							{
								OFFSET -28.328831 -0.000015 0.000015
								CHANNELS 6 Xposition Yposition Zposition Xrotation Yrotation Zrotation
								JOINT mixamorig:RightHandThumb1
								{
									OFFSET -2.464806 -1.573990 2.681852
									CHANNELS 6 Xposition Yposition Zposition Xrotation Yrotation Zrotation
									JOINT mixamorig:RightHandThumb2
									{
										OFFSET -3.215179 -1.872803 1.924282
										CHANNELS 6 Xposition Yposition Zposition Xrotation Yrotation Zrotation
										JOINT mixamorig:RightHandThumb3
										{
											OFFSET -2.654831 -1.527969 1.512609
											CHANNELS 6 Xposition Yposition Zposition Xrotation Yrotation Zrotation
											JOINT mixamorig:RightHandThumb4
											{
												OFFSET -2.018814 -1.152008 1.108052
												CHANNELS 6 Xposition Yposition Zposition Xrotation Yrotation Zrotation
												End Site
												{
													OFFSET -188.809540 -114.533607 132.431396
												}
											}
										}
									}
								}
								JOINT mixamorig:RightHandIndex1
								{
									OFFSET -9.108284 -0.517868 2.259835
									CHANNELS 6 Xposition Yposition Zposition Xrotation Yrotation Zrotation
									JOINT mixamorig:RightHandIndex2
									{
										OFFSET -3.699989 0.000000 0.001215
										CHANNELS 6 Xposition Yposition Zposition Xrotation Yrotation Zrotation
										JOINT mixamorig:RightHandIndex3
										{
											OFFSET -2.850006 0.000031 -0.000522
											CHANNELS 6 Xposition Yposition Zposition Xrotation Yrotation Zrotation
											JOINT mixamorig:RightHandIndex4
											{
												OFFSET -2.772186 -0.000015 -0.000020
												CHANNELS 6 Xposition Yposition Zposition Xrotation Yrotation Zrotation
												End Site
												{
													OFFSET -277.218445 0.000000 -0.050231
												}
											}
										}
									}
								}
								JOINT mixamorig:RightHandMiddle1
								{
									OFFSET -9.532516 -0.000031 -0.000023
									CHANNELS 6 Xposition Yposition Zposition Xrotation Yrotation Zrotation
									JOINT mixamorig:RightHandMiddle2
									{
										OFFSET -3.700005 -0.000015 0.003713
										CHANNELS 6 Xposition Yposition Zposition Xrotation Yrotation Zrotation
										JOINT mixamorig:RightHandMiddle3
										{
											OFFSET -2.949974 0.000015 -0.002054
											CHANNELS 6 Xposition Yposition Zposition Xrotation Yrotation Zrotation
											JOINT mixamorig:RightHandMiddle4
											{
												OFFSET -2.946640 0.000000 -0.000156
												CHANNELS 6 Xposition Yposition Zposition Xrotation Yrotation Zrotation
												End Site
												{
													OFFSET -294.664337 0.000000 -0.113670
												}
											}
										}
									}
								}
								JOINT mixamorig:RightHandRing1
								{
									OFFSET -9.103600 -0.043076 -1.865134
									CHANNELS 6 Xposition Yposition Zposition Xrotation Yrotation Zrotation
									JOINT mixamorig:RightHandRing2
									{
										OFFSET -3.379288 0.000000 -0.001055
										CHANNELS 6 Xposition Yposition Zposition Xrotation Yrotation Zrotation
										JOINT mixamorig:RightHandRing3
										{
											OFFSET -2.889687 -0.000015 0.000379
											CHANNELS 6 Xposition Yposition Zposition Xrotation Yrotation Zrotation
											JOINT mixamorig:RightHandRing4
											{
												OFFSET -2.638809 -0.000015 0.000941
												CHANNELS 6 Xposition Yposition Zposition Xrotation Yrotation Zrotation
												End Site
												{
													OFFSET -263.880371 0.000000 0.516020
												}
											}
										}
									}
								}
								JOINT mixamorig:RightHandPinky1
								{
									OFFSET -8.076683 -0.486710 -3.806280
									CHANNELS 6 Xposition Yposition Zposition Xrotation Yrotation Zrotation
									JOINT mixamorig:RightHandPinky2
									{
										OFFSET -3.600014 -0.000015 -0.003747
										CHANNELS 6 Xposition Yposition Zposition Xrotation Yrotation Zrotation
										JOINT mixamorig:RightHandPinky3
										{
											OFFSET -2.099983 0.000000 -0.005739
											CHANNELS 6 Xposition Yposition Zposition Xrotation Yrotation Zrotation
											JOINT mixamorig:RightHandPinky4
											{
												OFFSET -2.115768 -0.000031 -0.003680
												CHANNELS 6 Xposition Yposition Zposition Xrotation Yrotation Zrotation
												End Site
												{
													OFFSET -211.577087 0.000000 -0.350686
												}
											}
										}
									}
								}
							}
						}
					}
				}
				JOINT mixamorig:LeftShoulder
				{
					OFFSET 4.570447 11.014725 -2.160855
					CHANNELS 6 Xposition Yposition Zposition Xrotation Yrotation Zrotation
					JOINT mixamorig:LeftArm
					{
						OFFSET 10.592371 -0.524597 -2.232119
						CHANNELS 6 Xposition Yposition Zposition Xrotation Yrotation Zrotation
						JOINT mixamorig:LeftForeArm
						{
							OFFSET 27.841532 -0.000031 0.000026
							CHANNELS 6 Xposition Yposition Zposition Xrotation Yrotation Zrotation
							JOINT mixamorig:LeftHand
							{
								OFFSET 28.328846 -0.000061 0.000022
								CHANNELS 6 Xposition Yposition Zposition Xrotation Yrotation Zrotation
								JOINT mixamorig:LeftHandThumb1
								{
									OFFSET 2.466141 -1.576172 2.681732
									CHANNELS 6 Xposition Yposition Zposition Xrotation Yrotation Zrotation
									JOINT mixamorig:LeftHandThumb2
									{
										OFFSET 3.217812 -1.872070 1.916482
										CHANNELS 6 Xposition Yposition Zposition Xrotation Yrotation Zrotation
										JOINT mixamorig:LeftHandThumb3
										{
											OFFSET 2.656029 -1.528778 1.514513
											CHANNELS 6 Xposition Yposition Zposition Xrotation Yrotation Zrotation
											JOINT mixamorig:LeftHandThumb4
											{
												OFFSET 2.020889 -1.154053 1.115139
												CHANNELS 6 Xposition Yposition Zposition Xrotation Yrotation Zrotation
												End Site
												{
													OFFSET 190.885437 -115.081749 130.048782
												}
											}
										}
									}
								}
								JOINT mixamorig:LeftHandIndex1
								{
									OFFSET 9.109314 -0.518021 2.259871
									CHANNELS 6 Xposition Yposition Zposition Xrotation Yrotation Zrotation
									JOINT mixamorig:LeftHandIndex2
									{
										OFFSET 3.699989 0.000000 -0.000322
										CHANNELS 6 Xposition Yposition Zposition Xrotation Yrotation Zrotation
										JOINT mixamorig:LeftHandIndex3
										{
											OFFSET 2.850006 0.000000 0.000352
											CHANNELS 6 Xposition Yposition Zposition Xrotation Yrotation Zrotation
											JOINT mixamorig:LeftHandIndex4
											{
												OFFSET 2.774864 -0.000031 -0.000027
												CHANNELS 6 Xposition Yposition Zposition Xrotation Yrotation Zrotation
												End Site
												{
													OFFSET 277.486267 0.000000 -0.009857
												}
											}
										}
									}
								}
								JOINT mixamorig:LeftHandMiddle1
								{
									OFFSET 9.533394 0.000061 0.000044
									CHANNELS 6 Xposition Yposition Zposition Xrotation Yrotation Zrotation
									JOINT mixamorig:LeftHandMiddle2
									{
										OFFSET 3.699989 -0.000015 -0.000231
										CHANNELS 6 Xposition Yposition Zposition Xrotation Yrotation Zrotation
										JOINT mixamorig:LeftHandMiddle3
										{
											OFFSET 2.949997 -0.000015 -0.000059
											CHANNELS 6 Xposition Yposition Zposition Xrotation Yrotation Zrotation
											JOINT mixamorig:LeftHandMiddle4
											{
												OFFSET 2.952896 0.000031 0.000063
												CHANNELS 6 Xposition Yposition Zposition Xrotation Yrotation Zrotation
												End Site
												{
													OFFSET 295.289337 0.000000 0.022810
												}
											}
										}
									}
								}
								JOINT mixamorig:LeftHandRing1
								{
									OFFSET 9.104523 -0.042999 -1.865074
									CHANNELS 6 Xposition Yposition Zposition Xrotation Yrotation Zrotation
									JOINT mixamorig:LeftHandRing2
									{
										OFFSET 3.150009 -0.000031 0.000043
										CHANNELS 6 Xposition Yposition Zposition Xrotation Yrotation Zrotation
										JOINT mixamorig:LeftHandRing3
										{
											OFFSET 2.949982 -0.000015 0.000040
											CHANNELS 6 Xposition Yposition Zposition Xrotation Yrotation Zrotation
											JOINT mixamorig:LeftHandRing4
											{
												OFFSET 2.644348 0.000000 0.000057
												CHANNELS 6 Xposition Yposition Zposition Xrotation Yrotation Zrotation
												End Site
												{
													OFFSET 264.434631 0.000000 0.012105
												}
											}
										}
									}
								}
								JOINT mixamorig:LeftHandPinky1
								{
									OFFSET 8.077789 -0.486847 -3.806259
									CHANNELS 6 Xposition Yposition Zposition Xrotation Yrotation Zrotation
									JOINT mixamorig:LeftHandPinky2
									{
										OFFSET 3.599953 0.000031 0.014727
										CHANNELS 6 Xposition Yposition Zposition Xrotation Yrotation Zrotation
										JOINT mixamorig:LeftHandPinky3
										{
											OFFSET 2.100021 0.000015 0.007705
											CHANNELS 6 Xposition Yposition Zposition Xrotation Yrotation Zrotation
											JOINT mixamorig:LeftHandPinky4
											{
												OFFSET 2.125504 0.000031 0.007517
												CHANNELS 6 Xposition Yposition Zposition Xrotation Yrotation Zrotation
												End Site
												{
													OFFSET 212.550781 0.000000 0.625752
												}
											}
										}
									}
								}
							}
						}
					}
				}
			}
		}
	}
	JOINT mixamorig:RightUpLeg
	{
		OFFSET -8.207787 -6.751648 -1.599560
		CHANNELS 6 Xposition Yposition Zposition Xrotation Yrotation Zrotation
		JOINT mixamorig:RightLeg
		{
			OFFSET -0.000002 -44.370117 0.345942
			CHANNELS 6 Xposition Yposition Zposition Xrotation Yrotation Zrotation
			JOINT mixamorig:RightFoot
			{
				OFFSET 0.000003 -44.423679 -3.043532
				CHANNELS 6 Xposition Yposition Zposition Xrotation Yrotation Zrotation
				JOINT mixamorig:RightToeBase
				{
					OFFSET -0.000002 -8.728671 10.710558
					CHANNELS 6 Xposition Yposition Zposition Xrotation Yrotation Zrotation
					JOINT mixamorig:RightToe_End
					{
						OFFSET -0.000001 -0.000679 9.278119
						CHANNELS 6 Xposition Yposition Zposition Xrotation Yrotation Zrotation
						End Site
						{
							OFFSET 0.000000 -0.067690 927.812134
						}
					}
				}
			}
		}
	}
	JOINT mixamorig:LeftUpLeg
	{
		OFFSET 8.207793 -6.751686 -1.599556
		CHANNELS 6 Xposition Yposition Zposition Xrotation Yrotation Zrotation
		JOINT mixamorig:LeftLeg
		{
			OFFSET -0.000004 -44.370014 0.346954
			CHANNELS 6 Xposition Yposition Zposition Xrotation Yrotation Zrotation
			JOINT mixamorig:LeftFoot
			{
				OFFSET -0.000001 -44.423672 -3.044401
				CHANNELS 6 Xposition Yposition Zposition Xrotation Yrotation Zrotation
				JOINT mixamorig:LeftToeBase
				{
					OFFSET -0.000002 -8.728669 10.710558
					CHANNELS 6 Xposition Yposition Zposition Xrotation Yrotation Zrotation
					JOINT mixamorig:LeftToe_End
					{
						OFFSET -0.000003 -0.000679 9.278133
						CHANNELS 6 Xposition Yposition Zposition Xrotation Yrotation Zrotation
						End Site
						{
							OFFSET 0.000000 -0.068021 927.813477
						}
					}
				}
			}
		}
	}
}
MOTION
Frames: 3
Frame Time: 0.033333
0.000006 104.270477 1.554256 0.000010 0.000003 -0.000113 -0.000005 10.181587 0.131522 0.000001 -0.000003 0.000084 -0.000000 9.893967 -1.470711 0.000001 0.000000 -0.000000 -0.000000 9.220802 -1.370642 0.000000 -0.000000 -0.000000 0.000001 16.740433 -2.049030 0.000000 -0.000000 -0.000000 0.000000 9.617859 1.685014 0.000000 0.000000 0.000000 0.000002 22.037384 7.501101 0.000000 -0.000000 0.000000 -4.569968 11.014880 -2.160881 0.000008 0.000001 -0.000038 -10.592875 -0.524758 -2.231921 74.767130 27.336871 -21.053561 -27.841515 0.000008 0.000550 -48.242220 108.261135 63.536230 -28.328817 0.000021 0.000031 -0.000321 -0.000044 0.000006 -2.464403 -1.573847 2.682337 -40.418464 -154.061979 5.684118 -3.215219 -1.872481 1.924610 145.650519 34.009407 39.074491 -2.654954 -1.527893 1.513063 149.283565 27.426351 -28.623072 -2.018824 -1.152003 1.108063 -0.000001 -0.000009 0.000004 -9.108391 -0.517567 2.260147 106.543943 15.647613 -20.930836 -3.700049 0.000309 0.001552 104.358932 13.565685 -17.392114 -2.850097 0.000372 -0.000208 103.800857 11.601832 -14.763918 -2.772157 -0.000001 -0.000018 0.000000 0.000002 0.000000 -9.532589 0.000268 0.000260 98.120934 16.051139 -18.628100 -3.700075 0.000329 0.003987 97.512411 12.013395 -13.578941 -2.950063 0.000335 -0.001775 100.022451 11.700617 -13.921007 -2.946621 0.000002 -0.000153 0.000000 0.000001 0.000001 -9.103713 -0.042762 -1.864867 94.226435 18.833007 -20.198666 -3.379338 0.000314 -0.000798 95.938456 9.785599 -10.869449 -2.889764 0.000354 0.000667 103.061380 7.303227 -9.241893 -2.638802 -0.000013 0.000942 0.000002 -0.000000 -0.000003 -8.076767 -0.486403 -3.806039 82.757215 20.521245 -17.983658 -3.600039 0.000279 -0.003530 85.640921 9.440798 -8.417651 -2.100023 0.000325 -0.005484 90.711333 5.023121 -4.865674 -2.115751 -0.000027 -0.003677 0.000001 -0.000002 -0.000004 4.570446 11.014691 -2.160851 -0.000018 0.000010 -0.000021 10.592515 -0.524542 -2.232376 58.923571 -65.642585 40.038087 27.841724 -0.000066 -0.000095 57.430915 -107.756363 73.788863 28.328833 -0.000029 0.000030 0.000020 -0.000089 -0.000001 2.466137 -1.576198 2.681847 -413.286878 36.038984 375.577295 3.217825 -1.872029 1.916528 264.629833 47.862086 44.508402 2.655979 -1.528807 1.514607 -158.208273 45.973228 98.452191 2.020887 -1.154080 1.115137 0.000005 0.000004 0.000004 9.109252 -0.517789 2.260118 -111.519162 -13.891259 -20.284753 3.699782 0.000309 -0.000181 -159.556948 -13.035480 -64.735713 2.850131 0.000322 0.000370 -198.219084 -5.827591 -324.785604 2.774889 -0.000051 -0.000025 0.000003 0.000001 0.000002 9.533355 0.000003 0.000119 -184.165614 -16.082433 -208.931703 3.699996 0.000219 -0.000393 -93.665922 -183.500463 176.714547 2.949999 0.000007 -0.000192 30.712372 9.461976 -2.603499 2.952869 -0.000045 0.000072 -0.000003 -0.000004 -0.000001 9.104667 -0.042905 -1.865038 -193.653143 -13.907623 -268.918809 3.149945 0.000217 -0.000181 -288.297422 18.962729 -13.761419 2.949941 0.000029 -0.000089 203.676419 -199.627551 175.847072 2.644331 0.000046 0.000062 0.000003 0.000001 0.000001 8.077936 -0.486639 -3.806224 -196.021539 -8.962668 62.242722 3.599880 0.000158 0.014526 -293.469514 20.363144 -13.280526 2.099953 0.000048 0.007550 -327.015824 24.385430 -7.301529 2.125503 0.000013 0.007515 -0.000000 -0.000000 0.000000 -8.207786 -6.751667 -1.599560 -0.077001 -0.000003 0.000080 -0.000002 -44.370110 0.345938 0.153719 -0.000000 -0.000000 0.000000 -44.423679 -3.043532 -0.076700 0.000000 -0.000002 -0.000006 -8.728667 10.710559 -0.000009 -0.000000 -0.000000 -0.000001 -0.000679 9.278123 0.000000 -0.000000 -0.000000 8.207792 -6.751710 -1.599556 -0.074518 -0.000003 0.000081 -0.000002 -44.370014 0.346960 0.148822 0.000002 0.000000 -0.000001 -44.423664 -3.044403 -0.074314 0.000000 -0.000002 -0.000004 -8.728671 10.710558 0.000007 -0.000000 -0.000000 0.000000 -0.000680 9.278137 -0.000000 0.000000 -0.000001 
0.000006 104.270477 1.554256 0.000010 0.000003 -0.000113 -0.000005 10.181587 0.131522 0.000001 -0.000003 0.000084 -0.000000 9.893967 -1.470711 0.000001 0.000000 -0.000000 -0.000000 9.220802 -1.370642 0.000000 -0.000000 -0.000000 0.000001 16.740433 -2.049030 0.000000 -0.000000 -0.000000 0.000000 9.617859 1.685014 0.000000 0.000000 0.000000 0.000002 22.037384 7.501101 0.000000 -0.000000 0.000000 -4.569968 11.014880 -2.160881 0.000008 0.000001 -0.000038 -10.592875 -0.524766 -2.231896 74.770067 28.841109 -22.232998 -27.841511 -0.000005 0.000571 -48.325661 107.665597 63.076749 -28.328802 -0.000007 0.000028 -0.000322 -0.000042 0.000006 -2.464411 -1.573860 2.682341 -40.672216 -154.337536 5.225803 -3.215212 -1.872466 1.924620 146.012902 34.059520 38.210138 -2.654958 -1.527878 1.513066 149.457598 27.422038 -28.459884 -2.018834 -1.151984 1.108061 -0.000004 -0.000001 0.000002 -9.108397 -0.517557 2.260165 106.351735 15.437797 -20.582954 -3.700050 0.000316 0.001529 104.526299 13.027158 -16.754355 -2.850086 0.000365 -0.000234 104.096891 11.184732 -14.310426 -2.772169 0.000000 -0.000021 0.000000 0.000003 -0.000001 -9.532606 0.000271 0.000267 97.828465 16.039029 -18.520155 -3.700080 0.000330 0.003998 97.516995 11.822050 -13.362696 -2.950046 0.000335 -0.001789 100.298234 11.540016 -13.797017 -2.946616 0.000003 -0.000154 -0.000000 -0.000000 -0.000000 -9.103724 -0.042764 -1.864872 94.133087 18.795933 -20.126691 -3.379337 0.000316 -0.000799 95.746589 9.632656 -10.664271 -2.889741 0.000352 0.000676 103.020112 7.171740 -9.070023 -2.638822 -0.000014 0.000941 0.000001 -0.000001 -0.000001 -8.076779 -0.486397 -3.806037 82.767672 20.518307 -17.984303 -3.600043 0.000277 -0.003528 85.279215 9.539732 -8.455456 -2.100003 0.000324 -0.005494 90.267616 5.067626 -4.872750 -2.115781 -0.000053 -0.003680 0.000002 -0.000001 -0.000001 4.570446 11.014691 -2.160851 -0.000018 0.000010 -0.000021 10.592516 -0.524545 -2.232383 59.723003 -66.618906 41.340051 27.841728 -0.000073 -0.000089 58.055973 -107.766643 74.510288 28.328840 -0.000013 0.000017 0.000019 -0.000089 -0.000001 2.466088 -1.576193 2.681846 -467.268322 71.427892 422.594596 3.217829 -1.872004 1.916533 272.307922 40.998149 37.026100 2.656055 -1.528743 1.514605 -107.363627 31.172352 46.127874 2.020905 -1.154071 1.115153 0.000003 0.000001 0.000006 9.109248 -0.517817 2.260119 -102.585050 -16.461205 -20.455334 3.699766 0.000268 -0.000161 -156.891508 -16.231682 -69.806104 2.850149 0.000209 0.000376 -192.761585 -8.151200 -295.003985 2.774870 -0.000030 -0.000018 0.000000 0.000001 0.000001 9.533110 0.000207 0.000162 -172.110317 -14.821560 -124.157785 3.700030 0.000270 -0.000368 -67.990988 -176.337152 185.425566 2.950017 0.000099 -0.000253 66.460124 4.852034 -3.178349 2.952863 -0.000015 0.000067 -0.000002 0.000000 -0.000002 9.104356 -0.043011 -1.864995 -178.176645 -13.810302 -165.017766 3.149956 0.000276 -0.000151 -265.535489 8.881069 -9.596897 2.949937 0.000128 -0.000146 233.443845 -194.777611 172.530128 2.644324 0.000028 0.000055 -0.000002 -0.000000 0.000001 8.077594 -0.486839 -3.806178 -178.817358 -9.002836 199.744183 3.599885 0.000298 0.014519 -263.787698 13.596692 -14.792713 2.099954 0.000148 0.007516 -303.976258 17.853672 -9.425116 2.125510 -0.000022 0.007521 0.000001 -0.000001 0.000001 -8.207786 -6.751667 -1.599560 -0.077001 -0.000003 0.000080 -0.000002 -44.370110 0.345938 0.153719 -0.000000 -0.000000 0.000000 -44.423679 -3.043532 -0.076700 0.000000 -0.000002 -0.000006 -8.728667 10.710559 -0.000009 -0.000000 -0.000000 -0.000001 -0.000679 9.278123 0.000000 -0.000000 -0.000000 8.207792 -6.751710 -1.599556 -0.074518 -0.000003 0.000081 -0.000002 -44.370014 0.346960 0.148822 0.000002 0.000000 -0.000001 -44.423664 -3.044403 -0.074314 0.000000 -0.000002 -0.000004 -8.728671 10.710558 0.000007 -0.000000 -0.000000 0.000000 -0.000680 9.278137 -0.000000 0.000000 -0.000001 
0.000006 104.270477 1.554256 0.000010 0.000003 -0.000113 -0.000005 10.181587 0.131522 0.000001 -0.000003 0.000084 -0.000000 9.893967 -1.470711 0.000001 0.000000 -0.000000 -0.000000 9.220802 -1.370642 0.000000 -0.000000 -0.000000 0.000001 16.740433 -2.049030 0.000000 -0.000000 -0.000000 0.000000 9.617859 1.685014 0.000000 0.000000 0.000000 0.000002 22.037384 7.501101 0.000000 -0.000000 0.000000 -4.569968 11.014880 -2.160881 0.000008 0.000001 -0.000038 -10.592875 -0.524762 -2.231907 74.700140 28.175818 -21.684655 -27.841516 0.000008 0.000557 -48.304225 107.932562 63.301374 -28.328835 -0.000007 0.000022 -0.000319 -0.000043 0.000006 -2.464387 -1.573861 2.682350 -38.055639 -152.795744 10.214865 -3.215229 -1.872496 1.924621 147.433281 34.149269 34.327247 -2.654957 -1.527875 1.513067 149.364954 27.523598 -27.654697 -2.018830 -1.152002 1.108059 0.000000 0.000003 0.000000 -9.108365 -0.517557 2.260149 106.148311 14.972763 -19.897784 -3.700054 0.000326 0.001557 105.078396 12.053183 -15.659556 -2.850078 0.000365 -0.000220 104.495330 10.378835 -13.377791 -2.772154 -0.000015 -0.000020 -0.000000 0.000001 -0.000001 -9.532579 0.000274 0.000254 97.618307 15.234283 -17.537313 -3.700080 0.000334 0.003986 98.079338 10.755611 -12.271143 -2.950043 0.000347 -0.001766 100.490422 11.097223 -13.313727 -2.946635 -0.000000 -0.000154 -0.000002 -0.000000 0.000001 -9.103692 -0.042762 -1.864883 94.096982 17.270729 -18.482681 -3.379319 0.000335 -0.000792 96.087702 8.619166 -9.602046 -2.889757 0.000359 0.000676 103.003542 6.941538 -8.778377 -2.638798 -0.000028 0.000941 -0.000001 -0.000002 -0.000001 -8.076752 -0.486392 -3.806043 82.869428 19.558347 -17.164105 -3.600049 0.000253 -0.003529 84.971228 9.347286 -8.234476 -2.100008 0.000324 -0.005491 89.863727 5.165077 -4.935475 -2.115777 -0.000028 -0.003680 -0.000001 0.000001 -0.000003 4.570446 11.014691 -2.160851 -0.000018 0.000010 -0.000021 10.592515 -0.524547 -2.232378 60.232324 -66.259296 41.469637 27.841730 -0.000071 -0.000079 58.545574 -108.161489 75.466965 28.328831 -0.000028 0.000027 0.000022 -0.000087 0.000000 2.466133 -1.576183 2.681849 -415.532453 39.186534 376.943087 3.217830 -1.872007 1.916531 262.876387 44.808343 44.554400 2.656013 -1.528785 1.514616 -148.371161 40.140841 84.028942 2.020884 -1.154080 1.115155 0.000002 0.000004 0.000002 9.109257 -0.517799 2.260109 -108.722002 -15.209465 -21.088185 3.699817 0.000294 -0.000160 -153.118211 -15.063550 -57.923843 2.850135 0.000101 0.000407 -187.883450 -8.265512 -267.295847 2.774869 -0.000031 -0.000000 -0.000001 -0.000003 0.000001 9.533303 0.000010 0.000130 -181.948685 -15.214480 -194.573347 3.700009 0.000246 -0.000386 -79.482679 -179.605042 180.472340 2.949989 0.000077 -0.000210 49.980842 5.989571 -2.792768 2.952865 -0.000046 0.000060 -0.000000 -0.000001 0.000000 9.104590 -0.043028 -1.865031 -186.449589 -13.613819 -230.520961 3.149939 0.000264 -0.000177 -273.491457 13.854747 -13.041421 2.949950 0.000080 -0.000131 222.551633 -196.786834 173.423626 2.644323 0.000014 0.000052 0.000000 0.000002 0.000001 8.077912 -0.486793 -3.806214 -189.558950 -9.581699 95.739144 3.599879 0.000228 0.014511 -278.157705 17.444428 -14.909994 2.099946 0.000071 0.007545 -317.345533 21.510098 -8.419146 2.125499 -0.000028 0.007517 -0.000000 0.000000 -0.000001 -8.207786 -6.751667 -1.599560 -0.077001 -0.000003 0.000080 -0.000002 -44.370110 0.345938 0.153719 -0.000000 -0.000000 0.000000 -44.423679 -3.043532 -0.076700 0.000000 -0.000002 -0.000006 -8.728667 10.710559 -0.000009 -0.000000 -0.000000 -0.000001 -0.000679 9.278123 0.000000 -0.000000 -0.000000 8.207792 -6.751710 -1.599556 -0.074518 -0.000003 0.000081 -0.000002 -44.370014 0.346960 0.148822 0.000002 0.000000 -0.000001 -44.423664 -3.044403 -0.074314 0.000000 -0.000002 -0.000004 -8.728671 10.710558 0.000007 -0.000000 -0.000000 0.000000 -0.000680 9.278137 -0.000000 0.000000 -0.000001 
